<?xml version="1.0" standalone="no"?>
<!DOCTYPE svg PUBLIC "-//W3C//DTD SVG 20010904//EN"
 "http://www.w3.org/TR/2001/REC-SVG-20010904/DTD/svg10.dtd">
<svg version="1.0" xmlns="http://www.w3.org/2000/svg"
 width="1080.000000pt" height="1920.000000pt" viewBox="0 0 1080.000000 1920.000000"
 preserveAspectRatio="xMidYMid meet">

<g transform="translate(0.000000,1920.000000) scale(0.100000,-0.100000)"
fill="#000000" stroke="none">
<path d="M0 9600 l0 -9600 5400 0 5400 0 0 9600 0 9600 -5400 0 -5400 0 0
-9600z m5408 2297 l2 -468 -37 3 -38 3 -3 454 c-2 336 1 457 10 468 6 8 23 13
37 11 l26 -3 3 -468z m-544 217 c18 -7 39 -73 107 -339 27 -104 61 -235 75
-289 14 -54 23 -105 20 -111 -2 -7 -18 -17 -36 -23 -28 -10 -32 -9 -39 11 -16
40 -140 500 -167 616 -26 110 -26 115 -8 128 20 15 26 16 48 7z m1080 -16 c8
-13 5 -35 -12 -90 -12 -40 -47 -158 -77 -263 -30 -104 -66 -229 -80 -277 -14
-48 -25 -94 -25 -102 0 -19 -18 -20 -56 -6 -25 10 -26 14 -21 53 8 53 103 401
159 575 l42 133 30 -3 c16 -2 34 -11 40 -20z m479 -280 c-25 -46 -54 -94 -63
-109 -10 -14 -69 -110 -131 -215 -172 -292 -173 -293 -219 -256 l-22 18 22 43
c12 24 53 95 92 159 39 65 109 182 156 262 46 80 95 162 108 183 l24 37 40
-20 39 -20 -46 -82z m-2042 70 c12 -23 100 -172 195 -332 96 -159 173 -295
171 -301 -2 -5 -15 -17 -30 -25 -23 -13 -28 -13 -46 4 -12 11 -45 60 -74 110
-30 50 -113 192 -185 314 -73 123 -132 228 -132 232 0 13 42 40 62 40 11 0 26
-17 39 -42z m-199 -558 c158 -159 288 -294 288 -298 0 -16 -41 -62 -54 -62 -7
0 -87 78 -177 173 -90 94 -219 229 -288 299 l-125 128 24 25 c13 14 28 25 34
25 5 0 140 -130 298 -290z m2720 273 c24 -21 23 -28 -8 -69 -43 -56 -574 -566
-585 -562 -6 2 -17 18 -25 37 l-14 33 238 232 c288 283 354 345 366 346 5 0
18 -7 28 -17z m-1365 -318 c249 -40 462 -152 634 -331 131 -137 229 -327 265
-514 19 -96 28 -271 16 -289 -8 -11 -15 -11 -40 4 -29 17 -29 19 -36 126 -12
184 -80 372 -184 509 -136 179 -330 315 -534 374 -500 144 -985 -80 -1209
-558 -49 -106 -70 -195 -76 -334 -6 -106 -7 -114 -32 -133 -24 -19 -26 -19
-38 -3 -36 49 -41 135 -18 270 52 295 218 532 509 725 208 137 487 195 743
154z m-1884 -201 c270 -136 607 -334 607 -358 0 -7 -13 -24 -28 -39 l-28 -27
-35 24 c-69 47 -225 139 -294 174 -38 19 -106 58 -150 87 -44 28 -109 66 -144
85 -35 19 -65 40 -68 48 -6 13 12 62 22 62 3 0 56 -25 118 -56z m3569 31 c10
-22 9 -29 -8 -44 -17 -17 -306 -184 -593 -343 -20 -11 -51 -29 -69 -40 -18
-11 -34 -19 -36 -17 -2 2 -10 19 -19 37 l-16 33 42 26 c23 14 61 39 85 54 24
16 45 29 48 29 2 0 33 17 67 38 171 106 443 251 470 252 9 0 23 -11 29 -25z
m-1683 -357 c238 -223 363 -331 608 -526 37 -30 96 -80 130 -113 35 -32 68
-59 74 -59 12 0 109 -90 109 -101 0 -5 -36 -9 -80 -9 l-80 0 3 -405 c1 -223 3
-405 3 -405 1 0 67 32 148 71 175 84 329 128 480 136 l98 6 -7 -74 c-12 -125
-53 -329 -86 -429 -61 -184 -112 -261 -278 -424 -56 -54 -101 -100 -101 -102
0 -2 15 -4 33 -4 18 0 66 -9 107 -21 133 -36 440 -198 440 -232 0 -34 -231
-207 -363 -272 -151 -74 -218 -87 -452 -89 -136 -1 -218 3 -255 12 -89 22
-211 63 -262 88 -60 30 -68 30 -68 -3 0 -71 -107 -221 -216 -303 -32 -24 -82
-64 -111 -88 l-51 -43 -84 67 c-111 88 -152 129 -200 192 -51 69 -78 128 -78
175 0 20 -2 37 -5 37 -3 0 -31 -13 -63 -29 -242 -122 -615 -147 -875 -60 -112
37 -331 174 -429 267 l-38 36 23 24 c28 31 179 120 282 167 87 40 204 75 247
75 16 0 28 3 28 6 0 3 -44 50 -98 103 -212 210 -289 386 -347 794 -8 59 -15
112 -15 117 0 12 135 12 200 1 130 -23 228 -47 250 -62 32 -21 271 -159 276
-159 2 0 4 187 4 415 l0 415 -75 0 c-41 0 -75 3 -75 8 0 11 235 211 298 252
31 21 100 80 152 131 52 52 113 105 136 119 43 26 198 165 374 337 58 57 112
103 120 103 9 0 85 -64 169 -142z m-1784 -253 c149 -35 302 -72 340 -82 l70
-18 -2 -39 c-2 -22 -5 -41 -7 -44 -3 -2 -27 1 -53 7 -26 6 -178 40 -338 76
-453 102 -425 95 -425 117 0 11 5 29 11 40 10 18 17 20 72 14 34 -4 184 -36
332 -71z m3657 40 c4 -16 4 -33 0 -36 -12 -12 -812 -190 -822 -184 -15 9 -12
85 3 89 112 34 745 166 781 163 24 -2 31 -8 38 -32z m-3216 -499 c10 -25 -23
-73 -53 -79 -15 -3 -181 -4 -368 -4 l-340 2 -3 48 -3 47 381 0 c318 0 382 -2
386 -14z m3092 -33 l-3 -48 -285 -3 c-157 -1 -319 1 -360 5 -73 8 -75 9 -78
36 -7 60 -24 57 368 57 l361 0 -3 -47z"/>
<path d="M5339 10744 c-13 -15 -116 -109 -229 -210 -113 -101 -236 -212 -275
-247 -38 -35 -113 -98 -166 -140 -53 -42 -102 -83 -109 -92 -11 -13 70 -15
815 -15 484 0 825 4 823 9 -3 9 -161 146 -353 306 -60 51 -153 131 -205 180
-99 92 -265 235 -272 235 -3 0 -15 -12 -29 -26z"/>
<path d="M5105 9942 l-560 -2 -3 -248 c-2 -136 -6 -332 -10 -436 l-7 -188 80
-53 c144 -95 274 -222 366 -357 l41 -60 32 79 c17 43 48 106 68 140 36 60 225
309 252 332 10 8 30 -12 92 -91 138 -178 189 -262 244 -395 l26 -63 51 78 c94
140 277 318 384 373 l40 20 -3 437 -3 437 -265 0 c-146 0 -517 -1 -825 -3z
m715 -182 c29 -29 25 -66 -9 -101 -27 -26 -32 -28 -56 -17 -36 16 -59 62 -45
88 11 20 56 49 78 50 6 0 21 -9 32 -20z m-816 -11 c31 -25 34 -61 6 -89 -35
-35 -93 -21 -111 27 -8 22 -6 30 18 55 32 33 51 35 87 7z m424 -11 c11 -23 10
-32 -2 -56 -36 -69 -85 -65 -107 9 -12 39 -12 43 11 61 34 27 81 21 98 -14z
m-228 -180 c35 -38 37 -68 7 -94 -23 -20 -31 -22 -57 -12 -55 19 -72 72 -38
116 17 20 65 14 88 -10z m401 11 c56 -29 29 -119 -35 -119 -24 0 -56 40 -56
70 0 22 7 33 28 44 33 18 38 19 63 5z m-196 -185 c27 -11 37 -50 21 -87 -28
-67 -70 -72 -99 -12 -21 45 -21 47 4 79 20 26 42 32 74 20z m410 -29 c29 -28
30 -34 11 -80 -12 -29 -20 -35 -44 -35 -34 0 -82 34 -82 59 0 33 45 77 83 80
4 1 19 -10 32 -24z m-820 9 c8 -4 22 -19 31 -35 15 -30 7 -63 -20 -81 -21 -14
-66 -8 -86 12 -49 49 8 129 75 104z"/>
<path d="M3835 9198 c21 -186 67 -356 128 -473 33 -62 66 -103 152 -190 135
-135 229 -201 381 -265 65 -27 119 -48 121 -47 1 2 -14 27 -34 57 -109 163
-189 422 -219 714 l-7 65 -131 65 c-96 48 -163 74 -251 96 -66 16 -126 30
-133 30 -9 0 -11 -13 -7 -52z"/>
<path d="M6742 9220 c-77 -20 -152 -49 -237 -92 l-125 -63 0 -40 c0 -89 -56
-394 -92 -505 -25 -79 -46 -121 -104 -211 -24 -38 -42 -69 -40 -69 1 0 55 20
119 44 144 55 230 111 350 229 102 100 171 196 211 296 37 91 75 253 84 354
l8 87 -31 0 c-16 -1 -81 -14 -143 -30z"/>
<path d="M5299 8910 c-84 -118 -142 -226 -176 -325 -23 -67 -28 -97 -28 -185
0 -87 4 -113 22 -152 44 -96 103 -151 202 -188 l51 -20 64 26 c128 51 203 167
213 331 7 100 -11 161 -93 328 -51 103 -166 275 -183 275 -5 0 -37 -41 -72
-90z"/>
<path d="M6185 8943 c-92 -62 -273 -243 -331 -333 -62 -96 -114 -213 -114
-257 0 -60 -40 -190 -72 -234 -16 -22 -27 -43 -24 -47 11 -10 110 18 182 53
84 40 202 146 270 241 79 110 126 241 158 439 25 155 27 185 13 185 -6 0 -43
-22 -82 -47z"/>
<path d="M4474 8915 c16 -157 71 -368 121 -466 67 -129 200 -265 322 -327 43
-22 186 -64 181 -53 -2 3 -18 35 -36 70 -36 68 -72 193 -72 248 0 43 -15 71
-112 215 -96 141 -217 257 -382 363 l-29 19 7 -69z"/>
<path d="M4106 8204 c-107 -19 -197 -52 -285 -103 l-73 -43 34 -29 c63 -55
198 -141 266 -169 101 -42 266 -64 421 -57 148 8 267 33 383 80 83 35 162 76
156 83 -2 1 -45 17 -95 33 -50 17 -158 58 -239 92 -267 110 -330 129 -414 128
-41 0 -111 -7 -154 -15z"/>
<path d="M6355 8205 c-27 -8 -117 -41 -200 -75 -195 -80 -381 -150 -397 -150
-7 0 -20 -4 -28 -10 -20 -12 170 -103 271 -129 341 -87 705 -25 923 156 37 30
64 59 61 63 -9 14 -144 86 -205 110 -116 44 -328 62 -425 35z"/>
<path d="M5100 7857 c5 -90 7 -98 44 -151 21 -30 80 -94 132 -142 l95 -86 62
57 c85 79 131 130 174 195 34 49 37 62 41 138 l5 84 -94 -9 c-119 -10 -258
-10 -374 0 l-90 8 5 -94z"/>
</g>
</svg>
